<svg width="100" height="175" viewBox="0 0 100 175" fill="none" xmlns="http://www.w3.org/2000/svg">
<path fill-rule="evenodd" clip-rule="evenodd" d="M-3.41898 0.187106C12.9686 1.72587 21.5903 18.5444 36.2836 25.414C55.5081 34.4021 84.2285 29.1439 95.164 46.278C105.858 63.0333 97.1105 86.2682 85.4667 102.476C75.0172 117.02 51.2095 115.646 37.0307 127.195C20.2201 140.888 18.8641 172.554 -3.41898 174.874C-24.9326 177.115 -34.1554 148.811 -51.0951 136.372C-66.9212 124.75 -94.1141 122.604 -99.1985 104.542C-104.32 86.3487 -83.5909 71.2752 -74.1014 54.6417C-66.5693 41.4393 -61.8746 26.9255 -49.462 17.3627C-36.4362 7.32746 -20.3018 -1.39815 -3.41898 0.187106Z" fill="#373F4D"/>
</svg>
