<svg width="44" height="44" viewBox="0 0 44 44" fill="none" xmlns="http://www.w3.org/2000/svg">
<g opacity="0.2" clip-path="url(#clip0)">
<path d="M24.1728 38.8604C23.2171 38.2175 22.2941 37.5434 21.3025 36.9544C21.1449 36.8545 19.2012 35.718 19.3485 35.6303C21.3225 34.4868 22.986 33.6919 24.5223 31.8926C25.9879 30.1371 27.1496 28.1415 27.9628 25.9819C29.4499 22.0483 30.0389 17.7886 29.6883 13.5036C29.4069 9.82244 28.373 5.50869 25.7069 2.6644C25.204 2.13648 22.3921 -0.0357236 21.8678 1.35239C21.6235 1.99976 22.4633 2.20674 22.9035 2.53121C23.7563 3.2122 24.4619 4.0623 24.972 5.02331C29.1144 12.135 26.6924 22.769 22.2846 28.6336C21.1497 30.25 19.6103 31.5309 17.8091 32.3576C17.403 32.5273 15.9491 33.2147 15.627 32.8963C15.3049 32.5778 16.3943 30.3486 16.521 29.9054C16.9923 28.3044 17.7936 26.2706 17.7303 24.5538C17.6988 23.7808 17.4446 23.0751 16.5887 23.0085C15.5492 22.9062 15.283 23.9431 14.9832 24.696C14.1395 26.8162 13.6732 29.1101 13.0887 31.3256C12.5529 33.3435 11.6167 35.1964 13.8918 36.4188C16.2275 37.568 18.6134 38.6013 21.0402 39.5147C21.6999 39.788 23.4136 40.729 24.1897 40.3648C25.3424 39.8196 23.8821 39.2953 24.1662 38.8667C23.3189 38.2851 24.1532 38.8857 24.1728 38.8604Z" fill="white"/>
</g>
<defs>
<clipPath id="clip0">
<rect width="30" height="32" fill="white" transform="matrix(-0.689776 -0.724023 -0.724023 0.689776 43.8618 21.7207)"/>
</clipPath>
</defs>
</svg>
