<svg width="59" height="59" viewBox="0 0 59 59" fill="none" xmlns="http://www.w3.org/2000/svg">
<g opacity="0.5" clip-path="url(#clip0)">
<path d="M44.8265 49.5788C43.0696 49.3559 41.3335 49.0718 39.5685 48.9415C39.2832 48.9126 35.8366 48.6803 35.9691 48.4733C37.7688 45.74 39.4101 43.6547 40.1376 40.3522C40.8028 37.1514 40.8827 33.8335 40.3743 30.5256C39.456 24.4963 37.0927 18.617 33.4512 13.3027C30.3492 8.72467 25.7706 3.80781 20.0917 1.82814C19.0268 1.46585 13.6499 0.447452 13.9745 2.57477C14.1263 3.5667 15.4052 3.29997 16.2354 3.4393C17.8825 3.77684 19.4575 4.42656 20.8526 5.34396C31.6689 11.8991 36.2934 27.1817 34.726 37.564C34.4012 40.3749 33.2859 43.0093 31.4834 45.2234C31.0647 45.701 29.6247 47.5141 28.9572 47.3075C28.2898 47.1009 28.1 43.5272 27.9417 42.8738C27.3885 40.5052 26.9573 37.3672 25.6016 35.189C24.9872 34.21 24.1242 33.4599 22.9276 33.9182C21.4585 34.4472 21.8692 35.9565 22.0247 37.1201C22.4631 40.3967 23.536 43.6575 24.3924 46.8924C25.1677 49.8408 25.2843 52.8308 29.2386 52.9633C33.22 52.9626 37.1828 52.7802 41.1119 52.4169C42.1984 52.3505 45.192 52.4763 45.9627 51.512C47.1041 50.0743 44.7588 50.3257 44.8223 49.591C43.2561 49.3784 44.8189 49.6239 44.8265 49.5788Z" fill="white"/>
</g>
<defs>
<clipPath id="clip0">
<rect width="46.2804" height="45.6965" fill="white" transform="matrix(-0.946714 -0.322076 -0.322076 0.946714 58.5322 14.9058)"/>
</clipPath>
</defs>
</svg>
