<svg width="30" height="30" viewBox="0 0 30 30" fill="none" xmlns="http://www.w3.org/2000/svg">
<path fill-rule="evenodd" clip-rule="evenodd" d="M8.95337 0.421984C10.5174 0.349984 11.016 0.333984 15 0.333984C18.984 0.333984 19.4827 0.351318 21.0454 0.421984C22.608 0.492651 23.6747 0.741984 24.608 1.10332C25.5854 1.47265 26.472 2.04998 27.2054 2.79665C27.952 3.52865 28.528 4.41398 28.896 5.39265C29.2587 6.32598 29.5067 7.39265 29.5787 8.95265C29.6507 10.5193 29.6667 11.018 29.6667 15.0007C29.6667 18.9846 29.6494 19.4833 29.5787 21.0473C29.508 22.6073 29.2587 23.674 28.896 24.6073C28.528 25.5861 27.9511 26.4729 27.2054 27.206C26.472 27.9526 25.5854 28.5287 24.608 28.8967C23.6747 29.2593 22.608 29.5073 21.048 29.5793C19.4827 29.6513 18.984 29.6673 15 29.6673C11.016 29.6673 10.5174 29.65 8.95337 29.5793C7.39337 29.5086 6.32671 29.2593 5.39337 28.8967C4.4146 28.5286 3.5278 27.9517 2.79471 27.206C2.04855 26.4735 1.47113 25.5872 1.10271 24.6086C0.741374 23.6753 0.493374 22.6086 0.421374 21.0486C0.349374 19.482 0.333374 18.9833 0.333374 15.0007C0.333374 11.0167 0.350707 10.518 0.421374 8.95532C0.492041 7.39265 0.741374 6.32598 1.10271 5.39265C1.47167 4.41409 2.04953 3.52774 2.79604 2.79532C3.52809 2.04932 4.414 1.47191 5.39204 1.10332C6.32537 0.741984 7.39204 0.493984 8.95204 0.421984H8.95337ZM20.9267 3.06198C19.38 2.99132 18.916 2.97665 15 2.97665C11.084 2.97665 10.62 2.99132 9.07337 3.06198C7.64271 3.12732 6.86671 3.36598 6.34937 3.56732C5.66537 3.83398 5.17604 4.14998 4.66271 4.66332C4.1761 5.13672 3.80161 5.71303 3.56671 6.34998C3.36537 6.86732 3.12671 7.64332 3.06137 9.07398C2.99071 10.6207 2.97604 11.0847 2.97604 15.0007C2.97604 18.9167 2.99071 19.3806 3.06137 20.9273C3.12671 22.358 3.36537 23.134 3.56671 23.6513C3.80137 24.2873 4.17604 24.8647 4.66271 25.338C5.13604 25.8246 5.71337 26.1993 6.34937 26.434C6.86671 26.6353 7.64271 26.874 9.07337 26.9393C10.62 27.01 11.0827 27.0246 15 27.0246C18.9174 27.0246 19.38 27.01 20.9267 26.9393C22.3574 26.874 23.1334 26.6353 23.6507 26.434C24.3347 26.1673 24.824 25.8513 25.3374 25.338C25.824 24.8647 26.1987 24.2873 26.4334 23.6513C26.6347 23.134 26.8734 22.358 26.9387 20.9273C27.0094 19.3806 27.024 18.9167 27.024 15.0007C27.024 11.0847 27.0094 10.6207 26.9387 9.07398C26.8734 7.64332 26.6347 6.86732 26.4334 6.34998C26.1667 5.66598 25.8507 5.17665 25.3374 4.66332C24.8639 4.17675 24.2876 3.80227 23.6507 3.56732C23.1334 3.36598 22.3574 3.12732 20.9267 3.06198ZM13.1267 19.522C14.1729 19.9575 15.3379 20.0163 16.4226 19.6883C17.5073 19.3603 18.4446 18.6659 19.0742 17.7236C19.7038 16.7814 19.9868 15.6498 19.8748 14.5221C19.7628 13.3944 19.2627 12.3406 18.46 11.5407C17.9484 11.0293 17.3297 10.6377 16.6485 10.3942C15.9673 10.1506 15.2406 10.0611 14.5207 10.1321C13.8008 10.2031 13.1056 10.4329 12.4851 10.8048C11.8646 11.1768 11.3344 11.6816 10.9324 12.2831C10.5305 12.8846 10.267 13.5677 10.1607 14.2833C10.0545 14.9988 10.1082 15.729 10.3181 16.4213C10.5279 17.1136 10.8887 17.7508 11.3743 18.2869C11.86 18.8231 12.4585 19.2449 13.1267 19.522ZM9.66937 9.66998C10.3694 8.96995 11.2005 8.41465 12.1151 8.0358C13.0297 7.65694 14.01 7.46195 15 7.46195C15.99 7.46195 16.9703 7.65694 17.885 8.0358C18.7996 8.41465 19.6307 8.96995 20.3307 9.66998C21.0307 10.37 21.586 11.2011 21.9649 12.1157C22.3437 13.0304 22.5387 14.0107 22.5387 15.0007C22.5387 15.9906 22.3437 16.9709 21.9649 17.8856C21.586 18.8002 21.0307 19.6313 20.3307 20.3313C18.9169 21.7451 16.9994 22.5394 15 22.5394C13.0007 22.5394 11.0832 21.7451 9.66937 20.3313C8.25559 18.9175 7.46134 17 7.46134 15.0007C7.46134 13.0013 8.25559 11.0838 9.66937 9.66998ZM24.2107 8.58465C24.3842 8.42101 24.5231 8.22423 24.6191 8.00595C24.7152 7.78767 24.7665 7.55234 24.7699 7.31389C24.7734 7.07544 24.729 6.83871 24.6393 6.61773C24.5497 6.39675 24.4166 6.196 24.248 6.02737C24.0794 5.85874 23.8786 5.72566 23.6576 5.63601C23.4366 5.54635 23.1999 5.50195 22.9615 5.50543C22.723 5.5089 22.4877 5.56019 22.2694 5.65625C22.0511 5.7523 21.8543 5.89118 21.6907 6.06465C21.3725 6.40202 21.1982 6.85015 21.205 7.31389C21.2117 7.77764 21.399 8.22049 21.7269 8.54844C22.0549 8.87639 22.4977 9.06362 22.9615 9.07038C23.4252 9.07714 23.8733 8.9029 24.2107 8.58465Z" fill="url(#paint0_linear)"/>
<defs>
<linearGradient id="paint0_linear" x1="15" y1="0.333984" x2="15" y2="29.6673" gradientUnits="userSpaceOnUse">
<stop stop-color="#E00039"/>
<stop offset="1" stop-color="#FF2E63"/>
</linearGradient>
</defs>
</svg>
