<svg width="40" height="32" viewBox="0 0 40 32" fill="none" xmlns="http://www.w3.org/2000/svg">
<path d="M35.9999 32H3.99988C2.93901 32 1.9216 31.5786 1.17145 30.8284C0.421305 30.0783 -0.00012207 29.0609 -0.00012207 28V3.826C0.0447432 2.79558 0.485896 1.82232 1.23123 1.1094C1.97657 0.396486 2.96848 -0.000974478 3.99988 1.79424e-06H35.9999C37.0607 1.79424e-06 38.0782 0.421429 38.8283 1.17157C39.5784 1.92172 39.9999 2.93914 39.9999 4V28C39.9999 29.0609 39.5784 30.0783 38.8283 30.8284C38.0782 31.5786 37.0607 32 35.9999 32ZM3.99988 7.736V28H35.9999V7.736L19.9999 18.4L3.99988 7.736ZM5.59988 4L19.9999 13.6L34.3999 4H5.59988Z" fill="url(#paint0_linear)"/>
<defs>
<linearGradient id="paint0_linear" x1="19.9999" y1="0" x2="19.9999" y2="32" gradientUnits="userSpaceOnUse">
<stop stop-color="#E00039"/>
<stop offset="1" stop-color="#FF2E63"/>
</linearGradient>
</defs>
</svg>
