<svg width="100" height="175" viewBox="0 0 100 175" fill="none" xmlns="http://www.w3.org/2000/svg">
<path fill-rule="evenodd" clip-rule="evenodd" d="M96.3213 4.48614C116.333 1.25148 137.703 -3.7574 155.829 4.51853C175.102 13.3181 188.081 30.8899 194.666 49.3872C201.232 67.8301 203.22 89.4916 191.958 106.002C181.295 121.636 155.427 119.973 139.054 130.922C122.349 142.094 116.131 164.186 96.3213 169.961C73.7412 176.544 43.8391 178.751 27.2154 163.528C10.2889 148.027 25.1251 121.559 20.2444 100.294C16.1894 82.6263 -5.32819 67.3864 1.23658 50.3387C7.80946 33.2699 32.8587 30.0743 50.5742 21.5314C65.4844 14.3413 79.6657 7.17825 96.3213 4.48614Z" fill="#373F4D"/>
</svg>
